<?xml version="1.0" encoding="iso-8859-1"?>
<!-- Uploaded to: SVG Repo, www.svgrepo.com, Generator: SVG Repo Mixer Tools -->
<svg height="800px" width="800px" version="1.1" id="Layer_1" xmlns="http://www.w3.org/2000/svg" xmlns:xlink="http://www.w3.org/1999/xlink" 
	 viewBox="0 0 505 505" xml:space="preserve">
<circle style="fill:#90DFAA;" cx="252.5" cy="252.5" r="252.5"/>
<path style="fill:#E6E9EE;" d="M261,396v108.4c-3,0.1-6,0.2-9,0.2s-6,0-9-0.2V396H261z"/>
<path style="fill:#324A5E;" d="M282,349.5h-59c-38.4,0-69.5-31.1-69.5-69.5V145.5c0-38.4,31.1-69.5,69.5-69.5h59
	c38.4,0,69.5,31.1,69.5,69.5V280C351.5,318.4,320.4,349.5,282,349.5z"/>
<g>
	<path style="fill:#2B3B4E;" d="M308.7,81.3v36.6c0,7-5.6,12.6-12.6,12.6s-12.6-5.6-12.6-12.6V76C292.5,76.2,300.9,78.1,308.7,81.3z
		"/>
	<path style="fill:#2B3B4E;" d="M265.1,76v42c0,7-5.6,12.6-12.6,12.6s-12.6-5.6-12.6-12.6V76C239.9,76,265.1,76,265.1,76z"/>
	<path style="fill:#2B3B4E;" d="M221.5,76v41.9c0,7-5.6,12.6-12.6,12.6c-6.9,0-12.6-5.6-12.6-12.6V81.3
		C204.1,78.1,212.6,76.2,221.5,76z"/>
	<path style="fill:#2B3B4E;" d="M351.5,237.8v25.1h-73.8c-6.9,0-12.6-5.6-12.6-12.6c0-6.9,5.6-12.6,12.6-12.6h73.8V237.8z"/>
	<path style="fill:#2B3B4E;" d="M351.5,194.2v25.2h-73.8c-6.9,0-12.6-5.6-12.6-12.6s5.6-12.6,12.6-12.6L351.5,194.2L351.5,194.2z"/>
	<path style="fill:#2B3B4E;" d="M351.5,150.6v25.2h-73.8c-6.9,0-12.6-5.6-12.6-12.6c0-6.9,5.6-12.6,12.6-12.6L351.5,150.6
		L351.5,150.6z"/>
	<path style="fill:#2B3B4E;" d="M239.9,250.4c0,3.4-1.4,6.6-3.7,8.9s-5.4,3.7-8.9,3.7h-73.8v-25.1h73.8
		C234.3,237.8,239.9,243.5,239.9,250.4z"/>
	<path style="fill:#2B3B4E;" d="M239.9,206.8c0,3.4-1.4,6.6-3.7,8.9c-2.3,2.3-5.4,3.7-8.9,3.7h-73.8v-25.2h73.8
		C234.3,194.2,239.9,199.8,239.9,206.8z"/>
	<path style="fill:#2B3B4E;" d="M239.9,163.1c0,3.5-1.4,6.6-3.7,8.9c-2.3,2.3-5.4,3.7-8.9,3.7h-73.8v-25.2h73.8
		C234.3,150.6,239.9,156.2,239.9,163.1z"/>
</g>
<path style="fill:#FFFFFF;" d="M372.1,205.3v77.5c0,50.7-41.3,92-92,92h-55.3c-50.7,0-92-41.3-92-92v-77.5h-18v77.5
	c0,60.6,49.3,110,110,110h55.3c60.6,0,110-49.3,110-110v-77.5L372.1,205.3L372.1,205.3z"/>
<path style="fill:#ACB3BA;" d="M278.9,363H226c-2.5,0-4.6,2.1-4.6,4.6v57.7c0,2.5,2.1,4.6,4.6,4.6h52.9c2.5,0,4.6-2.1,4.6-4.6v-57.7
	C283.5,365.1,281.5,363,278.9,363z"/>
</svg>