<svg version="1.1" id="Layer_1" xmlns="http://www.w3.org/2000/svg" xmlns:xlink="http://www.w3.org/1999/xlink" x="0px" y="0px"
	 width="100%" viewBox="0 0 512 512" enable-background="new 0 0 512 512" xml:space="preserve">
<path fill="#FFC800" opacity="1.000000" stroke="none" 
	d="
M1.000000,275.000000 
	C1.000000,263.312439 1.000000,251.624878 1.299991,239.806122 
	C2.040546,239.198608 2.696565,238.796371 2.889626,238.234940 
	C6.221469,228.545822 7.487028,218.647766 7.108484,208.339890 
	C6.461058,190.710251 12.917260,175.375458 23.760330,161.709244 
	C24.413853,160.885559 24.736431,159.719406 24.973616,158.659058 
	C26.031681,153.928894 26.748426,149.108078 28.052544,144.449936 
	C32.080299,130.063293 40.514896,118.455627 51.184490,108.247040 
	C54.288979,105.276688 57.846836,102.249741 59.611519,98.502205 
	C66.881226,83.064026 77.830414,71.295311 92.530602,62.804905 
	C97.254669,60.076420 102.893585,57.925331 106.199028,53.926998 
	C118.438660,39.121693 133.687515,29.890753 152.350983,25.982901 
	C155.475525,25.328665 158.888931,25.145887 161.614883,23.700487 
	C166.157242,21.291956 170.014786,17.577917 174.580704,15.230540 
	C186.666550,9.017099 199.598740,5.800999 213.231613,7.095716 
	C222.194275,7.946904 230.261383,4.870457 238.579346,2.702610 
	C238.849152,2.632293 238.865509,1.589478 239.000000,1.000001 
	C244.688049,1.000000 250.376099,1.000000 256.532166,1.468657 
	C257.006500,22.919964 257.012848,43.902611 256.579773,65.014099 
	C226.424103,65.693169 198.011246,71.894096 171.464935,85.446198 
	C84.269707,129.960037 43.761395,228.012756 76.321060,320.276215 
	C99.163452,385.004089 145.477692,426.066498 212.128204,443.038544 
	C226.665100,446.740234 242.033813,447.175293 257.014648,449.576263 
	C257.006592,471.025146 257.003296,492.012573 257.000000,513.000000 
	C251.311966,513.000000 245.623917,513.000000 239.804779,512.699585 
	C239.336899,512.031372 239.067856,511.467804 238.653427,511.324371 
	C228.986511,507.979095 219.135590,506.496857 208.809662,506.882324 
	C192.516098,507.490570 177.873688,502.314667 164.861328,492.453125 
	C162.987961,491.033356 160.806519,489.382019 158.614502,489.120239 
	C138.225830,486.684998 121.392105,477.434784 108.034798,462.198608 
	C104.550179,458.223816 100.860886,455.221008 96.296844,453.069519 
	C81.249214,445.976135 70.318512,434.655243 62.043056,420.435974 
	C59.223331,415.590973 56.785156,409.965027 52.643898,406.549500 
	C38.416046,394.815155 30.179274,379.848053 25.997572,362.259308 
	C25.186951,358.849731 24.958853,355.143646 23.418394,352.103088 
	C21.168251,347.661743 17.556080,343.915466 15.261963,339.490540 
	C8.825289,327.075409 5.766423,313.761597 7.103222,299.791290 
	C7.932322,291.126709 4.616755,283.453705 2.702770,275.421051 
	C2.640629,275.160278 1.589893,275.135040 1.000000,275.000000 
z"/>
<path fill="#FFA400" opacity="1.000000" stroke="none" 
	d="
M257.467957,513.000000 
	C257.003296,492.012573 257.006592,471.025146 257.019531,449.463531 
	C257.029205,448.889343 256.972900,448.670868 257.421661,448.783264 
	C272.829529,447.030396 288.166656,446.679749 302.686707,443.055511 
	C401.325836,418.434692 463.111053,324.947937 445.786224,224.832382 
	C433.763672,155.357086 393.378021,107.012825 328.778015,79.165565 
	C305.988159,69.341499 281.883057,64.884827 257.001312,65.219757 
	C257.029144,65.110512 257.019196,64.885262 257.019196,64.885262 
	C257.012848,43.902611 257.006500,22.919964 257.000061,1.468657 
	C262.688049,1.000000 268.376068,1.000000 274.201111,1.304223 
	C274.821045,2.042484 275.231873,2.677824 275.797760,2.880620 
	C285.646210,6.410147 295.771851,7.351601 306.235901,7.121783 
	C322.007538,6.775396 336.215271,11.904496 348.904602,21.312145 
	C350.919464,22.805933 353.196838,24.214380 355.572510,24.890837 
	C359.294342,25.950600 363.296692,26.026907 367.016785,27.091103 
	C381.596130,31.261782 394.344604,38.683876 404.413177,50.076820 
	C408.036377,54.176640 411.502930,57.924355 416.606201,60.306309 
	C433.542389,68.211182 445.776489,80.927299 454.042267,97.665588 
	C455.742249,101.108040 457.908295,104.747704 460.827972,107.088501 
	C475.605225,118.935928 484.259644,134.246170 488.048187,152.589157 
	C488.979797,157.099548 489.380402,161.717285 492.836853,165.482849 
	C495.325409,168.193985 497.217133,171.552979 498.938690,174.850815 
	C506.200897,188.762558 507.345398,203.734863 507.268005,219.161774 
	C507.234985,225.746033 510.041809,232.346390 511.625854,238.923172 
	C511.656799,239.051636 512.523315,238.978882 513.000000,239.000000 
	C513.000000,250.687561 513.000000,262.375122 512.696411,274.199677 
	C511.958344,274.819519 511.324493,275.229980 511.118988,275.795959 
	C507.483673,285.807037 506.713348,296.132507 506.885284,306.748810 
	C507.161926,323.831268 500.983948,338.831909 490.410919,352.121704 
	C489.745148,352.958496 489.273193,354.060455 489.040680,355.111938 
	C487.957764,360.008545 487.316925,365.025604 485.920959,369.825989 
	C481.799347,383.999268 473.523773,395.567932 462.935455,405.671112 
	C459.812622,408.650909 456.210724,411.670776 454.440430,415.431213 
	C447.156372,430.903442 436.185455,442.686920 421.468597,451.227417 
	C416.452484,454.138397 410.598511,456.592896 407.043335,460.854401 
	C394.919495,475.386780 379.813782,484.253387 361.465485,488.039429 
	C358.341888,488.683929 354.963287,488.981018 352.230927,490.433075 
	C347.664886,492.859558 343.722290,496.453552 339.168976,498.910645 
	C325.158478,506.471100 309.931000,507.312042 294.348267,507.265259 
	C287.924561,507.245941 281.490417,510.041687 275.077789,511.625092 
	C274.946686,511.657440 275.021332,512.523132 275.000000,513.000000 
	C269.311951,513.000000 263.623932,513.000000 257.467957,513.000000 
z"/>
<path fill="#000000" opacity="1.000000" stroke="none" 
	d="
M513.000000,238.531342 
	C512.523315,238.978882 511.656799,239.051636 511.625854,238.923172 
	C510.041809,232.346390 507.234985,225.746033 507.268005,219.161774 
	C507.345398,203.734863 506.200897,188.762558 498.938690,174.850815 
	C497.217133,171.552979 495.325409,168.193985 492.836853,165.482849 
	C489.380402,161.717285 488.979797,157.099548 488.048187,152.589157 
	C484.259644,134.246170 475.605225,118.935928 460.827972,107.088501 
	C457.908295,104.747704 455.742249,101.108040 454.042267,97.665588 
	C445.776489,80.927299 433.542389,68.211182 416.606201,60.306309 
	C411.502930,57.924355 408.036377,54.176640 404.413177,50.076820 
	C394.344604,38.683876 381.596130,31.261782 367.016785,27.091103 
	C363.296692,26.026907 359.294342,25.950600 355.572510,24.890837 
	C353.196838,24.214380 350.919464,22.805933 348.904602,21.312145 
	C336.215271,11.904496 322.007538,6.775396 306.235901,7.121783 
	C295.771851,7.351601 285.646210,6.410147 275.797760,2.880620 
	C275.231873,2.677824 274.821045,2.042484 274.669037,1.304223 
	C354.260376,1.000000 433.520752,1.000000 513.000000,1.000000 
	C513.000000,80.020760 513.000000,159.041718 513.000000,238.531342 
z"/>
<path fill="#000000" opacity="1.000000" stroke="none" 
	d="
M1.000000,275.468658 
	C1.589893,275.135040 2.640629,275.160278 2.702770,275.421051 
	C4.616755,283.453705 7.932322,291.126709 7.103222,299.791290 
	C5.766423,313.761597 8.825289,327.075409 15.261963,339.490540 
	C17.556080,343.915466 21.168251,347.661743 23.418394,352.103088 
	C24.958853,355.143646 25.186951,358.849731 25.997572,362.259308 
	C30.179274,379.848053 38.416046,394.815155 52.643898,406.549500 
	C56.785156,409.965027 59.223331,415.590973 62.043056,420.435974 
	C70.318512,434.655243 81.249214,445.976135 96.296844,453.069519 
	C100.860886,455.221008 104.550179,458.223816 108.034798,462.198608 
	C121.392105,477.434784 138.225830,486.684998 158.614502,489.120239 
	C160.806519,489.382019 162.987961,491.033356 164.861328,492.453125 
	C177.873688,502.314667 192.516098,507.490570 208.809662,506.882324 
	C219.135590,506.496857 228.986511,507.979095 238.653427,511.324371 
	C239.067856,511.467804 239.336899,512.031372 239.336823,512.699585 
	C159.739624,513.000000 80.479256,513.000000 1.000000,513.000000 
	C1.000000,433.979248 1.000000,354.958282 1.000000,275.468658 
z"/>
<path fill="#000000" opacity="1.000000" stroke="none" 
	d="
M275.468628,513.000000 
	C275.021332,512.523132 274.946686,511.657440 275.077789,511.625092 
	C281.490417,510.041687 287.924561,507.245941 294.348267,507.265259 
	C309.931000,507.312042 325.158478,506.471100 339.168976,498.910645 
	C343.722290,496.453552 347.664886,492.859558 352.230927,490.433075 
	C354.963287,488.981018 358.341888,488.683929 361.465485,488.039429 
	C379.813782,484.253387 394.919495,475.386780 407.043335,460.854401 
	C410.598511,456.592896 416.452484,454.138397 421.468597,451.227417 
	C436.185455,442.686920 447.156372,430.903442 454.440430,415.431213 
	C456.210724,411.670776 459.812622,408.650909 462.935455,405.671112 
	C473.523773,395.567932 481.799347,383.999268 485.920959,369.825989 
	C487.316925,365.025604 487.957764,360.008545 489.040680,355.111938 
	C489.273193,354.060455 489.745148,352.958496 490.410919,352.121704 
	C500.983948,338.831909 507.161926,323.831268 506.885284,306.748810 
	C506.713348,296.132507 507.483673,285.807037 511.118988,275.795959 
	C511.324493,275.229980 511.958344,274.819519 512.696411,274.668335 
	C513.000000,354.260376 513.000000,433.520752 513.000000,513.000000 
	C433.979248,513.000000 354.958282,513.000000 275.468628,513.000000 
z"/>
<path fill="#000000" opacity="1.000000" stroke="none" 
	d="
M238.531342,1.000001 
	C238.865509,1.589478 238.849152,2.632293 238.579346,2.702610 
	C230.261383,4.870457 222.194275,7.946904 213.231613,7.095716 
	C199.598740,5.800999 186.666550,9.017099 174.580704,15.230540 
	C170.014786,17.577917 166.157242,21.291956 161.614883,23.700487 
	C158.888931,25.145887 155.475525,25.328665 152.350983,25.982901 
	C133.687515,29.890753 118.438660,39.121693 106.199028,53.926998 
	C102.893585,57.925331 97.254669,60.076420 92.530602,62.804905 
	C77.830414,71.295311 66.881226,83.064026 59.611519,98.502205 
	C57.846836,102.249741 54.288979,105.276688 51.184490,108.247040 
	C40.514896,118.455627 32.080299,130.063293 28.052544,144.449936 
	C26.748426,149.108078 26.031681,153.928894 24.973616,158.659058 
	C24.736431,159.719406 24.413853,160.885559 23.760330,161.709244 
	C12.917260,175.375458 6.461058,190.710251 7.108484,208.339890 
	C7.487028,218.647766 6.221469,228.545822 2.889626,238.234940 
	C2.696565,238.796371 2.040546,239.198608 1.299991,239.337463 
	C1.000000,159.739624 1.000000,80.479240 1.000000,1.000000 
	C80.020760,1.000000 159.041718,1.000000 238.531342,1.000001 
z"/>
<path fill="#1A4F57" opacity="1.000000" stroke="none" 
	d="
M257.024323,449.002075 
	C242.033813,447.175293 226.665100,446.740234 212.128204,443.038544 
	C145.477692,426.066498 99.163452,385.004089 76.321060,320.276215 
	C43.761395,228.012756 84.269707,129.960037 171.464935,85.446198 
	C198.011246,71.894096 226.424103,65.693169 256.579773,65.014099 
	C257.019196,64.885262 257.029144,65.110512 257.011688,65.667656 
	C257.057281,92.540009 257.120300,118.855217 257.150635,145.351807 
	C257.117920,145.533188 256.995239,145.880798 256.591064,145.830933 
	C250.034805,145.972580 246.146027,149.456894 243.149826,154.476059 
	C230.791138,175.179062 218.367966,195.843582 205.957352,216.515533 
	C205.039078,218.045059 204.032272,219.521423 202.945160,221.211349 
	C186.160309,212.807602 169.672302,204.597107 153.229340,196.297363 
	C146.908951,193.107101 140.757034,192.618759 135.028519,197.312256 
	C129.449066,201.883575 128.796173,207.900787 130.490250,214.541336 
	C133.735153,227.260834 136.853577,240.012558 140.043411,252.746170 
	C147.311157,281.758392 154.553970,310.776947 161.888336,339.772339 
	C163.933258,347.856598 168.835938,352.141510 176.600296,352.167053 
	C203.397751,352.255219 230.195908,352.124390 257.071289,352.248718 
	C257.148743,352.420532 257.225708,352.789490 257.170898,353.268555 
	C257.068359,385.388672 257.020630,417.029785 256.972900,448.670868 
	C256.972900,448.670868 257.029205,448.889343 257.024323,449.002075 
z"/>
<path fill="#013540" opacity="1.000000" stroke="none" 
	d="
M257.183350,145.170425 
	C257.120300,118.855217 257.057281,92.540009 256.983856,65.776901 
	C281.883057,64.884827 305.988159,69.341499 328.778015,79.165565 
	C393.378021,107.012825 433.763672,155.357086 445.786224,224.832382 
	C463.111053,324.947937 401.325836,418.434692 302.686707,443.055511 
	C288.166656,446.679749 272.829529,447.030396 257.421631,448.783264 
	C257.020630,417.029785 257.068359,385.388672 257.612793,353.190247 
	C283.761383,352.754517 309.413361,352.969910 335.065063,352.945557 
	C343.730438,352.937347 350.259674,348.227966 352.091675,340.585205 
	C354.756531,329.468201 357.689972,318.415741 360.476685,307.327637 
	C368.271881,276.311188 376.045227,245.289246 383.839783,214.272629 
	C385.512054,207.618103 384.548706,201.635818 379.001190,197.138153 
	C373.266541,192.488754 367.070679,192.938248 360.795959,196.142410 
	C355.183807,199.008255 349.558258,201.848328 343.920807,204.664124 
	C333.007477,210.115204 322.081604,215.541229 310.986084,221.064651 
	C298.260010,199.878952 285.634003,179.162415 273.355957,158.241699 
	C269.507477,151.684204 265.451447,145.980728 257.183350,145.170425 
z"/>
<path fill="#FEC801" opacity="1.000000" stroke="none" 
	d="
M257.150635,145.351807 
	C265.451447,145.980728 269.507477,151.684204 273.355957,158.241699 
	C285.634003,179.162415 298.260010,199.878952 310.986084,221.064651 
	C322.081604,215.541229 333.007477,210.115204 343.920807,204.664124 
	C349.558258,201.848328 355.183807,199.008255 360.795959,196.142410 
	C367.070679,192.938248 373.266541,192.488754 379.001190,197.138153 
	C384.548706,201.635818 385.512054,207.618103 383.839783,214.272629 
	C376.045227,245.289246 368.271881,276.311188 360.476685,307.327637 
	C357.689972,318.415741 354.756531,329.468201 352.091675,340.585205 
	C350.259674,348.227966 343.730438,352.937347 335.065063,352.945557 
	C309.413361,352.969910 283.761383,352.754517 257.667603,352.711182 
	C257.225708,352.789490 257.148743,352.420532 257.072266,351.775024 
	C256.995605,282.713287 256.995422,214.297043 256.995239,145.880798 
	C256.995239,145.880798 257.117920,145.533188 257.150635,145.351807 
z"/>
<path fill="#FEE66F" opacity="1.000000" stroke="none" 
	d="
M256.591064,145.830933 
	C256.995422,214.297043 256.995605,282.713287 256.994812,351.603210 
	C230.195908,352.124390 203.397751,352.255219 176.600296,352.167053 
	C168.835938,352.141510 163.933258,347.856598 161.888336,339.772339 
	C154.553970,310.776947 147.311157,281.758392 140.043411,252.746170 
	C136.853577,240.012558 133.735153,227.260834 130.490250,214.541336 
	C128.796173,207.900787 129.449066,201.883575 135.028519,197.312256 
	C140.757034,192.618759 146.908951,193.107101 153.229340,196.297363 
	C169.672302,204.597107 186.160309,212.807602 202.945160,221.211349 
	C204.032272,219.521423 205.039078,218.045059 205.957352,216.515533 
	C218.367966,195.843582 230.791138,175.179062 243.149826,154.476059 
	C246.146027,149.456894 250.034805,145.972580 256.591064,145.830933 
z"/>
</svg>